<?xml version="1.0" encoding="UTF-8" standalone="no"?>
<!-- Created with Inkscape (http://www.inkscape.org/) -->

<svg
   width="335.20053mm"
   height="294.27481mm"
   viewBox="0 0 335.20053 294.27481"
   version="1.1"
   id="svg1"
   xml:space="preserve"
   inkscape:version="1.3.1 (91b66b0783, 2023-11-16)"
   sodipodi:docname="рисунок.svg"
   inkscape:export-filename="рисунок.png"
   inkscape:export-xdpi="96"
   inkscape:export-ydpi="96"
   xmlns:inkscape="http://www.inkscape.org/namespaces/inkscape"
   xmlns:sodipodi="http://sodipodi.sourceforge.net/DTD/sodipodi-0.dtd"
   xmlns="http://www.w3.org/2000/svg"
   xmlns:svg="http://www.w3.org/2000/svg"><sodipodi:namedview
     id="namedview1"
     pagecolor="#ffffff"
     bordercolor="#666666"
     borderopacity="1.0"
     inkscape:showpageshadow="2"
     inkscape:pageopacity="0.0"
     inkscape:pagecheckerboard="0"
     inkscape:deskcolor="#d1d1d1"
     inkscape:document-units="mm"
     inkscape:zoom="0.69219276"
     inkscape:cx="557.64813"
     inkscape:cy="471.68942"
     inkscape:window-width="1920"
     inkscape:window-height="991"
     inkscape:window-x="-9"
     inkscape:window-y="-9"
     inkscape:window-maximized="1"
     inkscape:current-layer="layer1" /><defs
     id="defs1" /><g
     inkscape:label="Слой 1"
     inkscape:groupmode="layer"
     id="layer1"
     transform="translate(-0.41258129,28.323631)"><path
       style="opacity:1;fill:#d2d22d;fill-opacity:1;stroke:none;stroke-width:0.264583px;stroke-linecap:butt;stroke-linejoin:miter;stroke-opacity:1"
       d="m 144.89907,52.997797 20.4498,-20.736485 3.05792,119.832048 c -0.90896,-13.40757 -4.25092,-38.58153 -4.58687,-40.03958 -0.68693,-2.9813 -10.98939,-45.868723 -18.92085,-59.055983 z"
       id="path1"
       sodipodi:nodetypes="cccsc" /><path
       style="opacity:1;fill:#d2d22d;fill-opacity:1;stroke:none;stroke-width:0.264583px;stroke-linecap:butt;stroke-linejoin:miter;stroke-opacity:1"
       d="M 192.69832,53.538365 171.91406,31.702942 169.1906,152.63393 c 0.90896,-13.40757 4.25092,-38.58153 4.58687,-40.03958 0.68693,-2.9813 10.98939,-45.868725 18.92085,-59.055985 z"
       id="path3"
       sodipodi:nodetypes="cccsc" /><path
       style="fill:#bfbf40;stroke:none;stroke-width:0.264583px;stroke-linecap:butt;stroke-linejoin:miter;stroke-opacity:1;fill-opacity:1"
       d="m 137.52262,59.670722 c 0,0 2.78851,3.486638 5.3571,7.716599 3.32047,5.468159 6.8648,13.078382 6.8648,13.078382 0.0127,-0.0034 3.87343,8.64943 6.76414,16.755101 2.76952,7.765816 4.75493,15.872726 5.53379,17.841256 2.04674,5.17306 5.82021,37.67063 4.86511,37.2992 0.0493,0.015 -2.49989,-23.06819 -11.6057,-42.7798 -1.45219,-3.14361 -4.6551,-9.48088 -4.67892,-9.52016 -3.88152,-6.401598 -7.25777,-11.768196 -10.36303,-16.157642 -3.3822,-4.78091 -7.2052,-9.347806 -12.67868,-15.330455 z"
       id="path4"
       sodipodi:nodetypes="cscsscssscc" /><path
       style="fill:#bfbf40;stroke:none;stroke-width:0.264583px;stroke-linecap:butt;stroke-linejoin:miter;stroke-opacity:1;fill-opacity:1"
       d="m 110.59308,86.061503 c 0,0 14.0473,7.549229 19.49421,12.23166 5.44691,4.682437 14.81178,13.665057 18.25193,18.538607 3.44016,4.87355 9.55598,15.67182 10.03378,17.00966 0.4778,1.33783 6.49807,16.43629 6.30695,18.5386 -0.0973,1.07008 -0.469,-7.32776 -2.87504,-16.11391 -2.32095,-8.47539 -6.68094,-17.33203 -6.68094,-17.33203 0,0 -4.55875,-8.77341 -7.45949,-13.42121 -3.98858,-6.390834 -8.40344,-11.51991 -8.40344,-11.51991 0.10075,0.0403 -1.16269,-1.683293 -2.96096,-3.722425 -1.36803,-1.551272 -3.10598,-3.265033 -4.43579,-4.641234 -4.3196,-4.470302 -10.80741,-9.840491 -10.80741,-9.840491 l -5.38802,5.270771 z"
       id="path5"
       sodipodi:nodetypes="cssssscscssccc" /><path
       style="fill:#bfbf40;stroke:none;stroke-width:0.264583px;stroke-linecap:butt;stroke-linejoin:miter;stroke-opacity:1;fill-opacity:1"
       d="m 110.3064,93.132931 0.81483,3.470161 0.52927,2.835956 0.37598,6.594462 c 8.50318,3.02393 16.78695,7.18154 24.75,12.99614 3.95814,3.09108 6.75475,5.52881 9.28486,7.81662 5.59608,4.87601 7.84399,8.58723 10.68715,12.82431 2.63539,4.16903 3.98432,8.57915 5.31756,12.41897 l -2.42091,-9.21194 c -0.90553,-2.22031 -2.00985,-4.57315 -3.1842,-6.97268 -1.3998,-2.38362 -3.11619,-5.03105 -5.05619,-7.86484 -1.30014,-1.99595 -2.67123,-3.67079 -4.55321,-5.87267 -2.59346,-3.37142 -5.60732,-6.53264 -8.73722,-9.63584 -4.21613,-3.41005 -8.31235,-6.8904 -12.93881,-10.21415 -3.20471,-2.05473 -5.92761,-4.152068 -9.17535,-5.927279 z"
       id="path6"
       sodipodi:nodetypes="cccccccccccccccc" /><path
       style="fill:#bfbf40;stroke:none;stroke-width:0.264583px;stroke-linecap:butt;stroke-linejoin:miter;stroke-opacity:1;fill-opacity:1"
       d="m 110.6209,123.77872 c 7.26814,0.0351 14.36421,-0.1191 28.65011,7.63553 10.80059,6.03791 12.4446,10.69277 18.37932,16.0819 -2.73863,-5.99335 -7.32947,-11.48501 -13.31149,-16.75761 -7.23113,-6.15792 -15.88972,-11.72106 -27.43383,-16.08191 l -5.54082,-2.16227 z"
       id="path7"
       sodipodi:nodetypes="ccccccc" /><path
       style="fill:#bfbf40;stroke:none;stroke-width:0.264583px;stroke-linecap:butt;stroke-linejoin:miter;stroke-opacity:1;fill-opacity:1"
       d="m 103.05295,139.79305 5.47325,-9.59508 c 8.2727,-0.7492 16.32276,-0.014 24.05528,2.83798 9.44993,3.44539 15.51897,8.87953 22.02815,14.05477 -6.19214,-3.51394 -10.78474,-7.24601 -24.52827,-9.73022 -8.3374,0.55483 -15.1931,0.54519 -27.02841,2.43255 z"
       id="path8"
       sodipodi:nodetypes="cccccc" /><path
       style="fill:#bfbf40;stroke:none;stroke-width:0.264583px;stroke-linecap:butt;stroke-linejoin:miter;stroke-opacity:1;fill-opacity:1"
       d="m 96.701276,147.834 2.770412,-3.78398 c 9.368912,-2.02609 17.135952,-2.29014 24.730992,-2.36498 17.17576,0.92454 24.23168,5.06903 29.66367,9.73023 -5.86793,-3.04703 -6.80204,-4.72034 -22.70386,-6.68953 -0.1256,0.0732 -6.77188,-0.64915 -7.63834,-0.64584 -5.52054,0.0211 -7.9414,0.45002 -26.822874,3.7541 z"
       id="path9"
       sodipodi:nodetypes="cccccsc" /><path
       style="fill:#bfbf40;stroke:none;stroke-width:0.264583px;stroke-linecap:butt;stroke-linejoin:miter;stroke-opacity:1;fill-opacity:1"
       d="m 90.21446,154.38839 c 10.43683,-2.37335 20.04972,-3.92276 29.79882,-5.60839 9.91737,0.20583 17.46559,-2.69457 35.00178,7.50038 -4.60662,-3.68773 -7.95913,-7.7099 -20.33887,-9.3248 -9.85095,-1.05642 -22.09548,-2.22953 -40.542613,3.78398 z"
       id="path10"
       sodipodi:nodetypes="cccccc" /><path
       style="fill:#bfbf40;stroke:none;stroke-width:0.264583px;stroke-linecap:butt;stroke-linejoin:miter;stroke-opacity:1;fill-opacity:1"
       d="m 199.41778,59.145143 c 0,0 -3.26631,4.203337 -5.8349,8.433298 -3.32047,5.468159 -6.8648,13.078382 -6.8648,13.078382 -0.0127,-0.0034 -3.87343,8.64943 -6.76414,16.755101 -2.76952,7.765816 -4.75493,15.872726 -5.53379,17.841256 -2.04674,5.17306 -5.82021,37.67063 -4.86511,37.2992 -0.0493,0.015 2.49989,-23.06819 11.6057,-42.7798 1.45219,-3.14361 4.6551,-9.48088 4.67892,-9.52016 3.88152,-6.401598 7.25777,-11.768196 10.36303,-16.157642 3.3822,-4.78091 7.2052,-9.347806 12.67868,-15.330455 z"
       id="path11"
       sodipodi:nodetypes="cscsscssscc" /><path
       style="fill:#bfbf40;stroke:none;stroke-width:0.264583px;stroke-linecap:butt;stroke-linejoin:miter;stroke-opacity:1;fill-opacity:1"
       d="m 225.86952,86.252623 c 0,0 -14.0473,7.549229 -19.49421,12.23166 -5.44691,4.682437 -14.81178,13.665057 -18.25193,18.538607 -3.44016,4.87355 -9.55598,15.67182 -10.03378,17.00966 -0.4778,1.33783 -6.49807,16.43629 -6.30695,18.5386 0.0973,1.07008 0.469,-7.32776 2.87504,-16.11391 2.32095,-8.47539 6.68094,-17.33203 6.68094,-17.33203 0,0 4.55875,-8.77341 7.45949,-13.42121 3.98858,-6.390834 8.40344,-11.51991 8.40344,-11.51991 -0.10075,0.0403 1.16269,-1.683293 2.96096,-3.722425 1.36803,-1.551272 3.10598,-3.265033 4.43579,-4.641234 4.3196,-4.470302 10.80741,-9.840491 10.80741,-9.840491 l 5.38802,5.270771 z"
       id="path12"
       sodipodi:nodetypes="cssssscscssccc" /><path
       style="fill:#bfbf40;stroke:none;stroke-width:0.264583px;stroke-linecap:butt;stroke-linejoin:miter;stroke-opacity:1;fill-opacity:1"
       d="m 226.1562,93.324051 -0.81483,3.470161 -0.52927,2.835956 -0.37598,6.594462 c -8.50318,3.02393 -16.78695,7.18154 -24.75,12.99614 -3.95814,3.09108 -6.75475,5.52881 -9.28486,7.81662 -5.59608,4.87601 -7.84399,8.58723 -10.68715,12.82431 -2.63539,4.16903 -3.98432,8.57915 -5.31756,12.41897 l 2.42091,-9.21194 c 0.90553,-2.22031 2.00985,-4.57315 3.1842,-6.97268 1.3998,-2.38362 3.11619,-5.03105 5.05619,-7.86484 1.30014,-1.99595 2.67123,-3.67079 4.55321,-5.87267 2.59346,-3.37142 5.60732,-6.53264 8.73722,-9.63584 4.21613,-3.41005 8.31235,-6.8904 12.93881,-10.21415 3.20471,-2.05473 5.92761,-4.152068 9.17535,-5.927279 z"
       id="path13"
       sodipodi:nodetypes="cccccccccccccccc" /><path
       style="fill:#bfbf40;stroke:none;stroke-width:0.264583px;stroke-linecap:butt;stroke-linejoin:miter;stroke-opacity:1;fill-opacity:1"
       d="m 226.61877,123.80091 c -7.26814,0.0351 -15.14128,0.0498 -29.42718,7.80446 -10.80059,6.03791 -12.4446,10.69277 -18.37932,16.0819 2.73863,-5.99335 7.32947,-11.48501 13.31149,-16.75761 7.23113,-6.15792 15.65322,-11.8562 27.19733,-16.21705 l 5.37189,-2.26363 z"
       id="path14"
       sodipodi:nodetypes="ccccccc" /><path
       style="fill:#bfbf40;stroke:none;stroke-width:0.264583px;stroke-linecap:butt;stroke-linejoin:miter;stroke-opacity:1;fill-opacity:1"
       d="m 233.40965,139.98417 -5.47325,-9.59508 c -8.2727,-0.7492 -16.32276,-0.014 -24.05528,2.83798 -9.44993,3.44539 -15.51897,8.87953 -22.02815,14.05477 6.19214,-3.51394 10.8861,-7.0433 24.62963,-9.52751 4.01285,-0.66145 15.09174,0.34248 26.92705,2.22984 z"
       id="path15"
       sodipodi:nodetypes="cccccc" /><path
       style="fill:#bfbf40;stroke:none;stroke-width:0.264583px;stroke-linecap:butt;stroke-linejoin:miter;stroke-opacity:1;fill-opacity:1"
       d="m 240.13297,147.1467 -3.14206,-2.90556 c -9.26755,-3.54644 -23.04841,-2.96585 -24.73099,-2.97312 -11.16194,-0.59581 -24.23168,5.67717 -29.66367,10.33837 5.86793,-3.04703 6.80204,-4.72034 22.70386,-6.68953 0.1256,0.0732 6.77188,-0.64915 7.63834,-0.64584 5.52054,0.0211 8.31304,-0.4284 27.19452,2.87568 z"
       id="path16"
       sodipodi:nodetypes="cccccsc" /><path
       style="fill:#bfbf40;stroke:none;stroke-width:0.264583px;stroke-linecap:butt;stroke-linejoin:miter;stroke-opacity:1;fill-opacity:1"
       d="m 247.09278,155.12008 c -10.43683,-2.37335 -30.64346,-6.14896 -30.64346,-6.14896 -4.41033,-0.43609 -13.81676,-3.91085 -35.00178,7.50038 2.41056,-3.5188 12.21611,-8.85861 20.2713,-9.93294 1.16807,-0.0428 21.1157,-3.34445 40.00205,3.5137 z"
       id="path17"
       sodipodi:nodetypes="cccccc" /><path
       style="fill:#bfbf40;stroke:none;stroke-width:0.264583px;stroke-linecap:butt;stroke-linejoin:miter;stroke-opacity:1;fill-opacity:1"
       d="m 67.172742,174.79484 6.351677,-13.10878 c 16.573608,-3.03862 30.824511,-6.33531 50.272831,-9.05452 47.01122,-2.20501 43.8945,30.42797 42.97516,40.54261 -8.462,-11.30769 -20.23353,-17.9724 -34.46121,-19.19016 l -62.570759,11.35192 -8.649089,1.08114 5.540822,-10.27079 28.109542,-5.27054 c 21.902554,-3.72379 38.472984,-11.78693 61.219334,-0.946 -7.39232,-6.51001 -17.8425,-10.06081 -36.3532,-5.8111 -17.25865,3.77846 -34.165942,7.90828 -52.435108,10.67622 z"
       id="path18"
       sodipodi:nodetypes="cccccccccccc" /><path
       style="fill:#bfbf40;stroke:none;stroke-width:0.264583px;stroke-linecap:butt;stroke-linejoin:miter;stroke-opacity:1;fill-opacity:1"
       d="m 270.05039,174.6597 -6.35167,-13.10878 c -16.57361,-3.03862 -30.82451,-6.33531 -50.27283,-9.05452 -47.01123,-2.20501 -43.89451,30.42797 -42.97517,40.54261 8.462,-11.30769 20.23353,-17.9724 34.46121,-19.19016 l 62.57076,11.35192 8.64909,1.08114 -5.54082,-10.27079 -28.10954,-5.27054 c -21.90255,-3.72379 -35.63501,-10.43551 -59.39492,-1.55414 6.58147,-5.3613 16.8965,-7.2904 34.52879,-5.20296 17.25865,3.77846 34.16594,7.90828 52.4351,10.67622 z"
       id="path19"
       sodipodi:nodetypes="cccccccccccc" /><path
       style="display:inline;opacity:1;fill:#bfbf40;stroke:none;stroke-width:0.264583px;stroke-linecap:butt;stroke-linejoin:miter;stroke-opacity:1;fill-opacity:1"
       d="m 57.307374,193.91743 c 28.506287,-0.0804 28.473157,0.0994 61.272646,0.22421 35.11712,0.13364 40.4961,0.72611 42.06889,2.22895 8.35819,7.98646 10.63986,4.59639 15.46305,-0.0117 1.55771,-1.48824 4.27107,-2.12968 6.06665,-2.44156 39.31981,0.0676 65.38622,1e-5 98.45097,0.0676 -0.0584,-1.11396 -0.0628,-2.11166 -0.0628,-2.11166 -13.69018,-0.19236 -40.63255,-0.62037 -52.91183,-0.74673 -24.60767,-0.25323 -26.22663,-0.046 -38.28595,0.42939 -8.52471,0.33601 -10.17486,0.87774 -13.54107,2.60472 -8.40179,4.31041 -3.28489,6.04124 -14.46123,-0.31087 -8.63053,-4.13515 -93.586638,-1.33732 -104.126936,-1.6217 z"
       id="path20"
       sodipodi:nodetypes="csssccssssccc" /></g></svg>
